<svg width="20" height="20" viewBox="0 0 20 20" fill="none" xmlns="http://www.w3.org/2000/svg">
<path d="M18.3332 8.3335V7.50016C18.3332 4.16683 17.4998 3.3335 14.1665 3.3335H5.83317C2.49984 3.3335 1.6665 4.16683 1.6665 7.50016V7.91683C2.8165 7.91683 3.74984 8.85016 3.74984 10.0002C3.74984 11.1502 2.8165 12.0835 1.6665 12.0835V12.5002C1.6665 15.8335 2.49984 16.6668 5.83317 16.6668H14.1665C17.4998 16.6668 18.3332 15.8335 18.3332 12.5002C17.1832 12.5002 16.2498 11.5668 16.2498 10.4168C16.2498 9.26683 17.1832 8.3335 18.3332 8.3335Z" stroke="#292D32" stroke-width="1.25" stroke-linecap="round" stroke-linejoin="round"/>
<path d="M7.5 12.2915L12.5 7.2915" stroke="#292D32" stroke-width="1.25" stroke-linecap="round" stroke-linejoin="round"/>
<path d="M12.4956 12.2917H12.5031" stroke="#292D32" stroke-width="1.66667" stroke-linecap="round" stroke-linejoin="round"/>
<path d="M7.49559 7.70817H7.50307" stroke="#292D32" stroke-width="1.66667" stroke-linecap="round" stroke-linejoin="round"/>
</svg>
