<svg width="20" height="20" viewBox="0 0 20 20" fill="none" xmlns="http://www.w3.org/2000/svg">
<path d="M2.5083 9.34961V13.0913C2.5083 16.8329 4.0083 18.3329 7.74997 18.3329H12.2416C15.9833 18.3329 17.4833 16.8329 17.4833 13.0913V9.34961" stroke="#292D32" stroke-width="1.25" stroke-linecap="round" stroke-linejoin="round"/>
<path d="M12.4997 7.23317L11.9497 1.6665H8.05808L7.49975 7.23317C7.34975 8.75817 8.47475 9.99984 9.99975 9.99984C11.5247 9.99984 12.6497 8.75817 12.4997 7.23317Z" stroke="#292D32" stroke-width="1.25" stroke-linecap="round" stroke-linejoin="round"/>
<path d="M18.0082 6.95817L17.7748 4.6665C17.4748 2.49984 16.6415 1.6665 14.4582 1.6665H11.9165L12.4998 7.50817C12.6415 8.88317 13.8832 9.99984 15.2582 9.99984C16.9415 9.99984 18.1748 8.63317 18.0082 6.95817Z" stroke="#292D32" stroke-width="1.25" stroke-linecap="round" stroke-linejoin="round"/>
<path d="M7.44966 7.50817L7.63299 5.6665L8.03299 1.6665H5.49132C3.30799 1.6665 2.47466 2.49984 2.17466 4.6665L1.94966 6.95817C1.78299 8.63317 3.01632 9.99984 4.69966 9.99984C6.07466 9.99984 7.31632 8.88317 7.44966 7.50817Z" stroke="#292D32" stroke-width="1.25" stroke-linecap="round" stroke-linejoin="round"/>
<path d="M7.9165 16.2498V18.3332H12.0832V16.2498C12.0832 14.8582 11.3915 14.1665 9.99984 14.1665C8.60817 14.1665 7.9165 14.8582 7.9165 16.2498Z" stroke="#292D32" stroke-width="1.25" stroke-linecap="round" stroke-linejoin="round"/>
</svg>
