<svg width="1024" height="1024" viewBox="0 0 1024 1024" fill="none" xmlns="http://www.w3.org/2000/svg">
<path d="M960 109.248L914.752 64L64 914.752L109.248 960L173.248 896H832C848.966 895.975 865.23 889.224 877.227 877.227C889.224 865.23 895.975 848.966 896 832V173.248L960 109.248ZM832 832H237.248L486.624 582.624L562.752 658.752C574.754 670.75 591.029 677.49 608 677.49C624.971 677.49 641.246 670.75 653.248 658.752L704 608L832 735.904V832ZM832 645.376L749.248 562.624C737.246 550.626 720.971 543.886 704 543.886C687.029 543.886 670.754 550.626 658.752 562.624L608 613.376L531.936 537.312L832 237.248V645.376ZM192 704V608L352 448.096L395.936 492.064L441.248 446.752L397.248 402.752C385.246 390.754 368.971 384.014 352 384.014C335.029 384.014 318.754 390.754 306.752 402.752L192 517.504V192H704V128H192C175.026 128 158.747 134.743 146.745 146.745C134.743 158.747 128 175.026 128 192V704H192Z" fill="#999999"/>
</svg>
