<svg width="20" height="20" viewBox="0 0 20 20" fill="none" xmlns="http://www.w3.org/2000/svg">
<path fill-rule="evenodd" clip-rule="evenodd" d="M18.3332 8.44964V7.67464C18.3332 4.25798 17.2915 3.21631 13.8748 3.21631H6.12484C2.70817 3.21631 1.6665 4.25798 1.6665 7.67464V8.06631C1.6665 8.39131 1.92484 8.64964 2.24984 8.64964C2.99984 8.64964 3.60817 9.25798 3.60817 10.008C3.60817 10.758 2.99984 11.358 2.24984 11.358C1.92484 11.358 1.6665 11.6163 1.6665 11.9413V12.333C1.6665 15.7496 2.70817 16.7913 6.12484 16.7913H13.8748C17.2915 16.7913 18.3332 15.7496 18.3332 12.333C18.3332 12.008 18.0748 11.7496 17.7498 11.7496C16.9998 11.7496 16.3915 11.1413 16.3915 10.3913C16.3915 9.64131 16.9998 9.03298 17.7498 9.03298C18.0748 9.03298 18.3332 8.77464 18.3332 8.44964ZM8.33317 8.23298C8.33317 8.69131 7.9665 9.06631 7.49984 9.06631C7.0415 9.06631 6.6665 8.69131 6.6665 8.23298C6.6665 7.77464 7.03317 7.39964 7.49984 7.39964C7.95817 7.39964 8.33317 7.77464 8.33317 8.23298ZM11.6582 12.3996C11.6582 11.9413 12.0332 11.5663 12.4915 11.5663C12.9498 11.5663 13.3248 11.9413 13.3248 12.3996C13.3248 12.858 12.9665 13.233 12.4998 13.233C12.0332 13.233 11.6582 12.858 11.6582 12.3996ZM7.6415 13.508C7.5165 13.633 7.35817 13.6913 7.19984 13.6913C7.0415 13.6913 6.88317 13.633 6.75817 13.508C6.5165 13.2663 6.5165 12.8663 6.75817 12.6246L12.3665 7.01631C12.6082 6.77464 13.0082 6.77464 13.2498 7.01631C13.4915 7.25798 13.4915 7.65798 13.2498 7.89964L7.6415 13.508Z" fill="#292D32"/>
</svg>
