<svg width="20" height="20" viewBox="0 0 20 20" fill="none" xmlns="http://www.w3.org/2000/svg">
<path d="M18.3914 4.58317C18.0414 2.0665 16.8997 1.0415 14.458 1.0415H12.4914H11.258H8.72471H7.49137H5.49138C3.04138 1.0415 1.90804 2.0665 1.54971 4.60817L1.32471 6.89984C1.24137 7.7915 1.48304 8.65817 2.00804 9.33317C2.64137 10.1582 3.61637 10.6248 4.69971 10.6248C5.74971 10.6248 6.75804 10.0998 7.39137 9.25817C7.95804 10.0998 8.92471 10.6248 9.99971 10.6248C11.0747 10.6248 12.0164 10.1248 12.5914 9.2915C13.233 10.1165 14.2247 10.6248 15.258 10.6248C16.3664 10.6248 17.3664 10.1332 17.9914 9.2665C18.4914 8.59984 18.7164 7.75817 18.633 6.8915L18.3914 4.58317Z" fill="#292D32"/>
<path d="M7.59912 15.9584V18.2417C7.59912 18.4667 7.78245 18.65 8.00745 18.65H11.9825C12.2075 18.65 12.3908 18.4667 12.3908 18.2417V16.25C12.3991 14.5084 11.3741 13.6834 9.45745 13.8834C8.39912 13.9917 7.59912 14.8917 7.59912 15.9584Z" fill="#292D32"/>
<path d="M17.8091 14.4819C17.8091 16.7819 15.9424 18.6486 13.6424 18.6486C13.4174 18.6486 13.234 18.4653 13.234 18.2403V16.2486C13.234 15.1819 12.909 14.3486 12.2757 13.7819C11.7174 13.2736 10.959 13.0236 10.0174 13.0236C9.80905 13.0236 9.60072 13.0319 9.37572 13.0569C7.89238 13.2069 6.76738 14.4569 6.76738 15.9569V18.2403C6.76738 18.4653 6.58405 18.6486 6.35905 18.6486C4.05905 18.6486 2.19238 16.7819 2.19238 14.4819V12.0153C2.19238 11.4319 2.76738 11.0403 3.30905 11.2319C3.53405 11.3069 3.75905 11.3653 3.99238 11.3986C4.09238 11.4153 4.20072 11.4319 4.30072 11.4319C4.43405 11.4486 4.56738 11.4569 4.70072 11.4569C5.66738 11.4569 6.61738 11.0986 7.36738 10.4819C8.08405 11.0986 9.01738 11.4569 10.0007 11.4569C10.9924 11.4569 11.909 11.1153 12.6257 10.4986C13.3757 11.1069 14.309 11.4569 15.259 11.4569C15.409 11.4569 15.559 11.4486 15.7007 11.4319C15.8007 11.4236 15.8924 11.4153 15.984 11.3986C16.2424 11.3653 16.4757 11.2903 16.709 11.2153C17.2507 11.0319 17.8091 11.4319 17.8091 11.9986V14.4819Z" fill="#292D32"/>
</svg>
