<svg width="20" height="20" viewBox="0 0 20 20" fill="none" xmlns="http://www.w3.org/2000/svg">
<path d="M12.5 13.5415C12.1583 13.5415 11.875 13.2582 11.875 12.9165C11.875 12.5748 12.1583 12.2915 12.5 12.2915H17.5C17.8417 12.2915 18.125 12.5748 18.125 12.9165C18.125 13.2582 17.8417 13.5415 17.5 13.5415H12.5Z" fill="#292D32"/>
<path d="M12.5 16.875C12.1583 16.875 11.875 16.5917 11.875 16.25C11.875 15.9083 12.1583 15.625 12.5 15.625H17.5C17.8417 15.625 18.125 15.9083 18.125 16.25C18.125 16.5917 17.8417 16.875 17.5 16.875H12.5Z" fill="#292D32"/>
<path d="M18.3333 3.3165C18.3333 2.1415 17.8 1.6665 16.475 1.6665H13.1083C11.7833 1.6665 11.25 2.1415 11.25 3.3165V7.0915C11.25 8.27484 11.7833 8.7415 13.1083 8.7415H16.475C17.8 8.74984 18.3333 8.27484 18.3333 7.09984V3.3165Z" fill="#292D32"/>
<path d="M8.74984 3.3165C8.74984 2.1415 8.2165 1.6665 6.8915 1.6665H3.52484C2.19984 1.6665 1.6665 2.1415 1.6665 3.3165V7.0915C1.6665 8.27484 2.19984 8.7415 3.52484 8.7415H6.8915C8.2165 8.74984 8.74984 8.27484 8.74984 7.09984V3.3165Z" fill="#292D32"/>
<path d="M8.74984 13.1083C8.74984 11.7833 8.2165 11.25 6.8915 11.25H3.52484C2.19984 11.25 1.6665 11.7833 1.6665 13.1083V16.475C1.6665 17.8 2.19984 18.3333 3.52484 18.3333H6.8915C8.2165 18.3333 8.74984 17.8 8.74984 16.475V13.1083Z" fill="#292D32"/>
</svg>
